# xmcd CD database file
#
# Track frame offsets:
#	150
#	14893
#	27977
#	41149
#	57368
#	75636
#	90339
#	103023
#	119252
#	133172
#	147027
#	161591
#	176925
#
# Disc length: 2590 seconds
#
# Revision: 0
# Processed by: cddbd v1.5.2PL0 Copyright (c) Steve Scherf et al.
# Submitted via: jetAudio 7
#
DISCID=b30a1c0d
DTITLE=Cody Simpson - Paradise
DYEAR=1900
DGENRE=Country
TTITLE0=paradise
TTITLE1=got me good
TTITLE2=be the one
TTITLE3=hello
TTITLE4=tears on your pillow
TTITLE5=wish you were here
TTITLE6=i love girls
TTITLE7=back to you
TTITLE8=summer shade
TTITLE9=gentleman
TTITLE10=standing in china
TTITLE11=the reason
TTITLE12=torn up
EXTD=
EXTT0=
EXTT1=
EXTT2=
EXTT3=
EXTT4=
EXTT5=
EXTT6=
EXTT7=
EXTT8=
EXTT9=
EXTT10=
EXTT11=
EXTT12=
PLAYORDER=
